<mxfile host="Electron" agent="Mozilla/5.0 (Windows NT 10.0; Win64; x64) AppleWebKit/537.36 (KHTML, like Gecko) draw.io/24.7.17 Chrome/128.0.6613.36 Electron/32.0.1 Safari/537.36" version="24.7.17">
  <diagram name="Página-1" id="3Wg84PQkkPxUaPDnGE2P">
    <mxGraphModel dx="1434" dy="836" grid="1" gridSize="10" guides="1" tooltips="1" connect="1" arrows="1" fold="1" page="1" pageScale="1" pageWidth="827" pageHeight="1169" math="0" shadow="0">
      <root>
        <mxCell id="0" />
        <mxCell id="1" parent="0" />
        <mxCell id="YiS8r-AfrKTb_U__HiyB-32" style="edgeStyle=orthogonalEdgeStyle;rounded=0;orthogonalLoop=1;jettySize=auto;html=1;entryX=0.5;entryY=1;entryDx=0;entryDy=0;endArrow=none;endFill=0;" parent="1" source="YiS8r-AfrKTb_U__HiyB-5" target="YiS8r-AfrKTb_U__HiyB-24" edge="1">
          <mxGeometry relative="1" as="geometry" />
        </mxCell>
        <mxCell id="YiS8r-AfrKTb_U__HiyB-34" value="N" style="edgeLabel;html=1;align=center;verticalAlign=middle;resizable=0;points=[];" parent="YiS8r-AfrKTb_U__HiyB-32" vertex="1" connectable="0">
          <mxGeometry x="0.7085" y="2" relative="1" as="geometry">
            <mxPoint as="offset" />
          </mxGeometry>
        </mxCell>
        <mxCell id="YiS8r-AfrKTb_U__HiyB-5" value="Juntan" style="shape=rhombus;perimeter=rhombusPerimeter;whiteSpace=wrap;html=1;align=center;" parent="1" vertex="1">
          <mxGeometry x="540" y="280" width="120" height="60" as="geometry" />
        </mxCell>
        <mxCell id="YiS8r-AfrKTb_U__HiyB-28" style="edgeStyle=orthogonalEdgeStyle;rounded=0;orthogonalLoop=1;jettySize=auto;html=1;entryX=0;entryY=0.25;entryDx=0;entryDy=0;endArrow=none;endFill=0;" parent="1" source="YiS8r-AfrKTb_U__HiyB-10" target="YiS8r-AfrKTb_U__HiyB-25" edge="1">
          <mxGeometry relative="1" as="geometry">
            <Array as="points">
              <mxPoint x="520" y="150" />
            </Array>
          </mxGeometry>
        </mxCell>
        <mxCell id="YiS8r-AfrKTb_U__HiyB-30" value="N" style="edgeLabel;html=1;align=center;verticalAlign=middle;resizable=0;points=[];" parent="YiS8r-AfrKTb_U__HiyB-28" vertex="1" connectable="0">
          <mxGeometry x="0.5066" y="1" relative="1" as="geometry">
            <mxPoint as="offset" />
          </mxGeometry>
        </mxCell>
        <mxCell id="YiS8r-AfrKTb_U__HiyB-10" value="Participan" style="shape=rhombus;perimeter=rhombusPerimeter;whiteSpace=wrap;html=1;align=center;" parent="1" vertex="1">
          <mxGeometry x="320" y="120" width="120" height="60" as="geometry" />
        </mxCell>
        <mxCell id="YiS8r-AfrKTb_U__HiyB-36" style="edgeStyle=orthogonalEdgeStyle;rounded=0;orthogonalLoop=1;jettySize=auto;html=1;entryX=0;entryY=0;entryDx=0;entryDy=0;endArrow=none;endFill=0;" parent="1" source="YiS8r-AfrKTb_U__HiyB-11" target="YiS8r-AfrKTb_U__HiyB-23" edge="1">
          <mxGeometry relative="1" as="geometry">
            <Array as="points">
              <mxPoint x="300" y="410" />
              <mxPoint x="300" y="410" />
            </Array>
          </mxGeometry>
        </mxCell>
        <mxCell id="YiS8r-AfrKTb_U__HiyB-37" value="N" style="edgeLabel;html=1;align=center;verticalAlign=middle;resizable=0;points=[];" parent="YiS8r-AfrKTb_U__HiyB-36" vertex="1" connectable="0">
          <mxGeometry x="0.7656" relative="1" as="geometry">
            <mxPoint as="offset" />
          </mxGeometry>
        </mxCell>
        <mxCell id="YiS8r-AfrKTb_U__HiyB-38" style="edgeStyle=orthogonalEdgeStyle;rounded=0;orthogonalLoop=1;jettySize=auto;html=1;entryX=0.5;entryY=1;entryDx=0;entryDy=0;endArrow=none;endFill=0;" parent="1" source="YiS8r-AfrKTb_U__HiyB-11" target="YiS8r-AfrKTb_U__HiyB-20" edge="1">
          <mxGeometry relative="1" as="geometry" />
        </mxCell>
        <mxCell id="YiS8r-AfrKTb_U__HiyB-39" value="1" style="edgeLabel;html=1;align=center;verticalAlign=middle;resizable=0;points=[];" parent="YiS8r-AfrKTb_U__HiyB-38" vertex="1" connectable="0">
          <mxGeometry x="0.8085" relative="1" as="geometry">
            <mxPoint as="offset" />
          </mxGeometry>
        </mxCell>
        <mxCell id="YiS8r-AfrKTb_U__HiyB-11" value="Recolectar" style="shape=rhombus;perimeter=rhombusPerimeter;whiteSpace=wrap;html=1;align=center;" parent="1" vertex="1">
          <mxGeometry x="100" y="380" width="120" height="60" as="geometry" />
        </mxCell>
        <mxCell id="YiS8r-AfrKTb_U__HiyB-20" value="Partidas" style="swimlane;childLayout=stackLayout;horizontal=1;startSize=50;horizontalStack=0;rounded=1;fontSize=14;fontStyle=0;strokeWidth=2;resizeParent=0;resizeLast=1;shadow=0;dashed=0;align=center;arcSize=4;whiteSpace=wrap;html=1;" parent="1" vertex="1">
          <mxGeometry x="80" y="82" width="160" height="167" as="geometry" />
        </mxCell>
        <mxCell id="YiS8r-AfrKTb_U__HiyB-21" value="+Id&lt;br&gt;+Dificultad&lt;div&gt;+Meta&lt;br&gt;+Duración&lt;div&gt;+Recurso1&lt;/div&gt;&lt;div&gt;+Recurso2&lt;/div&gt;&lt;div&gt;+Recurso3&lt;/div&gt;&lt;/div&gt;" style="align=left;strokeColor=none;fillColor=none;spacingLeft=4;fontSize=12;verticalAlign=top;resizable=0;rotatable=0;part=1;html=1;" parent="YiS8r-AfrKTb_U__HiyB-20" vertex="1">
          <mxGeometry y="50" width="160" height="117" as="geometry" />
        </mxCell>
        <mxCell id="YiS8r-AfrKTb_U__HiyB-22" value="Recursos" style="swimlane;childLayout=stackLayout;horizontal=1;startSize=50;horizontalStack=0;rounded=1;fontSize=14;fontStyle=0;strokeWidth=2;resizeParent=0;resizeLast=1;shadow=0;dashed=0;align=center;arcSize=4;whiteSpace=wrap;html=1;" parent="1" vertex="1">
          <mxGeometry x="320" y="360" width="160" height="100" as="geometry" />
        </mxCell>
        <mxCell id="YiS8r-AfrKTb_U__HiyB-23" value="+Id&lt;br&gt;+Nombre" style="align=left;strokeColor=none;fillColor=none;spacingLeft=4;fontSize=12;verticalAlign=top;resizable=0;rotatable=0;part=1;html=1;" parent="YiS8r-AfrKTb_U__HiyB-22" vertex="1">
          <mxGeometry y="50" width="160" height="50" as="geometry" />
        </mxCell>
        <mxCell id="YiS8r-AfrKTb_U__HiyB-24" value="Jugadores" style="swimlane;childLayout=stackLayout;horizontal=1;startSize=50;horizontalStack=0;rounded=1;fontSize=14;fontStyle=0;strokeWidth=2;resizeParent=0;resizeLast=1;shadow=0;dashed=0;align=center;arcSize=4;whiteSpace=wrap;html=1;" parent="1" vertex="1">
          <mxGeometry x="520" y="82" width="160" height="100" as="geometry" />
        </mxCell>
        <mxCell id="YiS8r-AfrKTb_U__HiyB-25" value="+Id&lt;br&gt;+Nombre" style="align=left;strokeColor=none;fillColor=none;spacingLeft=4;fontSize=12;verticalAlign=top;resizable=0;rotatable=0;part=1;html=1;" parent="YiS8r-AfrKTb_U__HiyB-24" vertex="1">
          <mxGeometry y="50" width="160" height="50" as="geometry" />
        </mxCell>
        <mxCell id="YiS8r-AfrKTb_U__HiyB-29" style="edgeStyle=orthogonalEdgeStyle;rounded=0;orthogonalLoop=1;jettySize=auto;html=1;entryX=1.003;entryY=0.165;entryDx=0;entryDy=0;entryPerimeter=0;endArrow=none;endFill=0;" parent="1" source="YiS8r-AfrKTb_U__HiyB-10" target="YiS8r-AfrKTb_U__HiyB-21" edge="1">
          <mxGeometry relative="1" as="geometry">
            <Array as="points" />
          </mxGeometry>
        </mxCell>
        <mxCell id="YiS8r-AfrKTb_U__HiyB-31" value="1" style="edgeLabel;html=1;align=center;verticalAlign=middle;resizable=0;points=[];" parent="YiS8r-AfrKTb_U__HiyB-29" vertex="1" connectable="0">
          <mxGeometry x="0.6728" y="-2" relative="1" as="geometry">
            <mxPoint as="offset" />
          </mxGeometry>
        </mxCell>
        <mxCell id="YiS8r-AfrKTb_U__HiyB-33" style="edgeStyle=orthogonalEdgeStyle;rounded=0;orthogonalLoop=1;jettySize=auto;html=1;entryX=1.006;entryY=0.137;entryDx=0;entryDy=0;entryPerimeter=0;endArrow=none;endFill=0;" parent="1" source="YiS8r-AfrKTb_U__HiyB-5" target="YiS8r-AfrKTb_U__HiyB-23" edge="1">
          <mxGeometry relative="1" as="geometry">
            <Array as="points">
              <mxPoint x="600" y="417" />
            </Array>
          </mxGeometry>
        </mxCell>
        <mxCell id="YiS8r-AfrKTb_U__HiyB-35" value="N" style="edgeLabel;html=1;align=center;verticalAlign=middle;resizable=0;points=[];" parent="YiS8r-AfrKTb_U__HiyB-33" vertex="1" connectable="0">
          <mxGeometry x="0.8305" y="-2" relative="1" as="geometry">
            <mxPoint as="offset" />
          </mxGeometry>
        </mxCell>
      </root>
    </mxGraphModel>
  </diagram>
</mxfile>
